<svg width="440" height="32" viewBox="0 0 440 32" fill="none" xmlns="http://www.w3.org/2000/svg">
<g clip-path="url(#clip0_1_475)">
<path fill-rule="evenodd" clip-rule="evenodd" d="M11.3401 10.7021C11.1907 10.5524 11.1068 10.3495 11.1068 10.1379C11.1068 9.9264 11.1907 9.7235 11.3401 9.57373L14.9159 5.99688C14.9901 5.9226 15.0782 5.86367 15.1752 5.82346C15.2722 5.78325 15.3762 5.76255 15.4812 5.76255C15.5862 5.76255 15.6901 5.78325 15.7871 5.82346C15.8841 5.86367 15.9722 5.9226 16.0464 5.99688L19.6212 9.57373C19.6953 9.64782 19.754 9.73578 19.7941 9.83259C19.8342 9.92939 19.8549 10.0332 19.8549 10.1379C19.8549 10.2427 19.8342 10.3465 19.7941 10.4433C19.754 10.5401 19.6953 10.6281 19.6212 10.7021L16.0464 14.279C15.9722 14.3533 15.8841 14.4122 15.7871 14.4524C15.6901 14.4926 15.5862 14.5133 15.4812 14.5133C15.3762 14.5133 15.2722 14.4926 15.1752 14.4524C15.0782 14.4122 14.9901 14.3533 14.9159 14.279L11.3401 10.7021ZM9.36328 8.72636L5.78749 5.15057C5.71295 5.07651 5.65379 4.98844 5.61343 4.89143C5.57306 4.79442 5.55228 4.69038 5.55228 4.5853C5.55228 4.48023 5.57306 4.37619 5.61343 4.27918C5.65379 4.18217 5.71295 4.0941 5.78749 4.02004L9.36328 0.444251C9.51309 0.294545 9.71622 0.210449 9.92801 0.210449C10.1398 0.210449 10.3429 0.294545 10.4928 0.444251L14.0696 4.02004C14.1439 4.09424 14.2028 4.18236 14.243 4.27935C14.2832 4.37634 14.3039 4.48031 14.3039 4.5853C14.3039 4.6903 14.2832 4.79427 14.243 4.89126C14.2028 4.98825 14.1439 5.07637 14.0696 5.15057L10.4928 8.72636C10.3429 8.87606 10.1398 8.96016 9.92801 8.96016C9.71622 8.96016 9.51309 8.87606 9.36328 8.72636ZM9.36328 11.5506C9.51309 11.4009 9.71622 11.3168 9.92801 11.3168C10.1398 11.3168 10.3429 11.4009 10.4928 11.5506L14.0696 15.1264C14.1439 15.2006 14.2028 15.2887 14.243 15.3857C14.2832 15.4827 14.3039 15.5866 14.3039 15.6916C14.3039 15.7966 14.2832 15.9006 14.243 15.9976C14.2028 16.0946 14.1439 16.1827 14.0696 16.2569L10.4928 19.8316C10.4186 19.9059 10.3306 19.9648 10.2337 20.005C10.1368 20.0452 10.0329 20.0659 9.92801 20.0659C9.8231 20.0659 9.71922 20.0452 9.62232 20.005C9.52541 19.9648 9.43739 19.9059 9.36328 19.8316L5.78749 16.2569C5.71295 16.1828 5.65379 16.0948 5.61343 15.9977C5.57306 15.9007 5.55228 15.7967 5.55228 15.6916C5.55228 15.5865 5.57306 15.4825 5.61343 15.3855C5.65379 15.2885 5.71295 15.2004 5.78749 15.1264L9.36328 11.5506ZM3.81064 14.279L0.234855 10.7032C0.160569 10.629 0.101638 10.5409 0.0614297 10.4439C0.0212218 10.3469 0.000526206 10.2429 0.000526206 10.1379C0.000526206 10.0329 0.0212218 9.92897 0.0614297 9.83198C0.101638 9.73499 0.160569 9.64687 0.234855 9.57267L3.81064 5.99794C3.88476 5.92368 3.97278 5.86477 4.06969 5.82458C4.16659 5.78439 4.27047 5.7637 4.37538 5.7637C4.48029 5.7637 4.58417 5.78439 4.68108 5.82458C4.77798 5.86477 4.86601 5.92368 4.94012 5.99794L8.51591 9.57267C8.66568 9.72267 8.7498 9.92597 8.7498 10.1379C8.7498 10.3499 8.66568 10.5532 8.51591 10.7032L4.93907 14.279C4.78925 14.4287 4.58612 14.5128 4.37433 14.5128C4.16253 14.5128 3.96046 14.4287 3.81064 14.279ZM16.0464 17.1032L19.6212 20.679C19.6956 20.753 19.7546 20.841 19.7948 20.9379C19.8351 21.0349 19.8559 21.1388 19.8559 21.2437C19.8559 21.3487 19.8351 21.4526 19.7948 21.5495C19.7546 21.6464 19.6956 21.7344 19.6212 21.8085L16.0464 25.3853C15.8966 25.535 15.6935 25.6191 15.4817 25.6191C15.2699 25.6191 15.0668 25.535 14.917 25.3853L11.3401 21.8085C11.1907 21.6585 11.1068 21.4554 11.1068 21.2437C11.1068 21.032 11.1907 20.8289 11.3401 20.679L14.917 17.1032C15.0668 16.9535 15.2699 16.8694 15.4817 16.8694C15.6935 16.8694 15.8966 16.9535 16.0464 17.1032ZM10.4928 22.6558L14.0685 26.2316C14.1431 26.3057 14.2022 26.3937 14.2426 26.4908C14.283 26.5878 14.3037 26.6918 14.3037 26.7969C14.3037 26.902 14.283 27.006 14.2426 27.103C14.2022 27.2 14.1431 27.2881 14.0685 27.3621L10.4928 30.9369C10.3429 31.0866 10.1398 31.1707 9.92801 31.1707C9.71622 31.1707 9.51309 31.0866 9.36328 30.9369L5.78749 27.3611C5.7132 27.2869 5.65427 27.1988 5.61406 27.1018C5.57385 27.0048 5.55316 26.9008 5.55316 26.7958C5.55316 26.6908 5.57385 26.5869 5.61406 26.4899C5.65427 26.3929 5.7132 26.3048 5.78749 26.2306L9.36328 22.6548C9.51309 22.5051 9.71622 22.421 9.92801 22.421C10.1398 22.421 10.3429 22.5061 10.4928 22.6558ZM8.51591 20.679C8.66561 20.8288 8.74971 21.0319 8.74971 21.2437C8.74971 21.4555 8.66561 21.6586 8.51591 21.8085L4.94012 25.3853C4.79017 25.5348 4.58709 25.6187 4.37538 25.6187C4.16367 25.6187 3.9606 25.5348 3.81064 25.3853L0.233802 21.8085C0.0840953 21.6586 0 21.4555 0 21.2437C0 21.0319 0.0840953 20.8288 0.233802 20.679L3.81064 17.1032C3.96046 16.9535 4.16359 16.8694 4.37538 16.8694C4.58717 16.8694 4.7903 16.9535 4.94012 17.1032L8.51591 20.679Z" fill="#E6C3A5"/>
</g>
<g clip-path="url(#clip1_1_475)">
<path fill-rule="evenodd" clip-rule="evenodd" d="M39.0201 20.62C39.0201 20.318 38.9581 20.051 38.8321 19.822C38.7007 19.5831 38.5188 19.3756 38.2991 19.214C38.0468 19.026 37.7712 18.8714 37.4791 18.754C37.1397 18.6161 36.7936 18.4953 36.4421 18.392C35.937 18.2449 35.4422 18.0641 34.9611 17.851C34.4935 17.6467 34.0556 17.3803 33.6591 17.059C33.2845 16.7567 32.97 16.3866 32.7321 15.968C32.4971 15.55 32.3801 15.068 32.3801 14.52C32.3801 13.972 32.4971 13.483 32.7321 13.05C32.9681 12.615 33.2851 12.247 33.6821 11.944C34.0974 11.6318 34.5646 11.3955 35.0621 11.246C35.5938 11.0811 36.1475 10.9982 36.7041 11C37.3151 11 37.8871 11.094 38.4211 11.283C38.9541 11.473 39.4201 11.738 39.8191 12.079C40.2181 12.419 40.5341 12.828 40.7671 13.303C40.9771 13.729 41.0941 14.197 41.1201 14.706C41.121 14.7286 41.1172 14.7511 41.1091 14.7722C41.101 14.7932 41.0888 14.8125 41.0731 14.8287C41.0574 14.845 41.0386 14.8579 41.0179 14.8667C40.9971 14.8755 40.9747 14.88 40.9521 14.88H39.1771C39.1362 14.8796 39.0969 14.8642 39.0665 14.8367C39.0361 14.8093 39.0168 14.7717 39.0121 14.731C38.9804 14.4807 38.9169 14.2353 38.8231 14.001C38.7203 13.7438 38.5658 13.5103 38.3691 13.315C38.1658 13.1179 37.9232 12.966 37.6571 12.869C37.3457 12.7594 37.0172 12.7062 36.6871 12.712C36.3721 12.712 36.0811 12.753 35.8131 12.834C35.5609 12.9084 35.3252 13.0306 35.1191 13.194C34.9261 13.347 34.7691 13.5406 34.6591 13.761C34.5459 13.9949 34.4894 14.2522 34.4941 14.512C34.4941 14.809 34.5701 15.067 34.7211 15.286C34.8721 15.504 35.0701 15.696 35.3151 15.858C35.5591 16.021 35.8401 16.162 36.1581 16.282C36.4751 16.402 36.8071 16.512 37.1501 16.61C37.6801 16.766 38.1881 16.96 38.6701 17.191C39.1541 17.421 39.5791 17.698 39.9471 18.021C40.3141 18.344 40.6051 18.718 40.8201 19.144C41.0351 19.569 41.1441 20.056 41.1441 20.604C41.1441 21.168 41.0241 21.666 40.7851 22.098C40.5461 22.528 40.2261 22.89 39.8241 23.181C39.4013 23.4827 38.9278 23.7063 38.4261 23.841C37.5067 24.0962 36.5404 24.1332 35.6041 23.949C35.2245 23.8753 34.8537 23.7613 34.4981 23.609C34.1499 23.4595 33.82 23.2702 33.5151 23.045C33.2159 22.8249 32.9496 22.5633 32.7241 22.268C32.2834 21.6857 32.0308 20.9827 32.0001 20.253C31.9992 20.2305 32.0028 20.208 32.0108 20.187C32.0188 20.1659 32.0309 20.1466 32.0465 20.1304C32.0621 20.1141 32.0808 20.1012 32.1016 20.0924C32.1223 20.0836 32.1446 20.079 32.1671 20.079H33.9571C34.0391 20.079 34.1051 20.141 34.1141 20.221C34.1511 20.546 34.2321 20.834 34.3541 21.083C34.4941 21.369 34.6791 21.607 34.9141 21.796C35.1461 21.986 35.4191 22.128 35.7301 22.225C36.0411 22.321 36.3871 22.368 36.7651 22.368C37.0801 22.368 37.3751 22.33 37.6481 22.255C37.9221 22.179 38.1601 22.067 38.3641 21.918C38.5691 21.77 38.7291 21.586 38.8451 21.368C38.9649 21.1372 39.0251 20.8801 39.0201 20.62ZM51.6941 18.191H46.6221V22.185H52.5841C52.6751 22.185 52.7471 22.258 52.7471 22.347V23.735C52.7471 23.825 52.6751 23.898 52.5841 23.898H44.6781C44.6349 23.898 44.5935 23.8809 44.5629 23.8503C44.5323 23.8197 44.5151 23.7783 44.5151 23.735V11.336C44.5151 11.246 44.5881 11.174 44.6781 11.174H52.5241C52.6141 11.174 52.6861 11.246 52.6861 11.336V12.742C52.6864 12.7634 52.6824 12.7846 52.6744 12.8043C52.6663 12.8241 52.6544 12.8421 52.6393 12.8572C52.6242 12.8723 52.6062 12.8842 52.5865 12.8922C52.5667 12.9003 52.5455 12.9043 52.5241 12.904H46.6221V16.496H51.6941C51.7841 16.496 51.8561 16.569 51.8561 16.658V18.03C51.8561 18.119 51.7831 18.191 51.6941 18.191ZM65.2381 12.904H61.4941V23.735C61.4941 23.825 61.4211 23.898 61.3311 23.898H59.5671C59.5458 23.898 59.5247 23.8938 59.5051 23.8856C59.4854 23.8774 59.4676 23.8653 59.4526 23.8502C59.4376 23.835 59.4258 23.817 59.4178 23.7973C59.4099 23.7775 59.4059 23.7563 59.4061 23.735V12.904H55.6871C55.6658 12.9042 55.6446 12.9001 55.6248 12.892C55.6051 12.8839 55.5871 12.872 55.5719 12.8569C55.5568 12.8419 55.5448 12.824 55.5366 12.8043C55.5284 12.7845 55.5241 12.7634 55.5241 12.742V11.336C55.5241 11.246 55.5971 11.174 55.6871 11.174H65.2371C65.3271 11.174 65.3991 11.246 65.3991 11.336V12.742C65.3994 12.7633 65.3954 12.7844 65.3875 12.8041C65.3795 12.8238 65.3676 12.8417 65.3526 12.8568C65.3377 12.8719 65.3198 12.8838 65.3001 12.892C65.2805 12.9001 65.2594 12.9042 65.2381 12.904ZM74.5481 20.944H70.5721L69.7321 23.781C69.7224 23.8147 69.7021 23.8442 69.6741 23.8653C69.6462 23.8864 69.6122 23.8979 69.5771 23.898H67.7541C67.7286 23.8979 67.7034 23.8916 67.6806 23.8799C67.6579 23.8682 67.6382 23.8513 67.6232 23.8305C67.6082 23.8098 67.5983 23.7858 67.5943 23.7605C67.5903 23.7353 67.5923 23.7094 67.6001 23.685L71.6281 11.286C71.6386 11.2534 71.6591 11.225 71.6868 11.2048C71.7145 11.1847 71.7479 11.1739 71.7821 11.174H73.3901C73.4601 11.174 73.5231 11.22 73.5441 11.287L77.4941 23.686C77.502 23.7103 77.504 23.736 77.5001 23.7612C77.4961 23.7863 77.4863 23.8102 77.4714 23.8308C77.4565 23.8515 77.437 23.8683 77.4143 23.88C77.3917 23.8917 77.3666 23.8979 77.3411 23.898H75.5251C75.4901 23.8978 75.4562 23.8861 75.4284 23.8648C75.4006 23.8435 75.3805 23.8138 75.3711 23.78L74.5481 20.944ZM71.1051 19.152H74.0241L72.5821 14.163L71.1051 19.152ZM83.0381 19.022V23.735C83.0381 23.825 82.9651 23.898 82.8751 23.898H81.1021C81.0591 23.8978 81.0179 23.8805 80.9875 23.8499C80.9572 23.8194 80.9401 23.7781 80.9401 23.735V11.336C80.9401 11.246 81.0131 11.174 81.1021 11.174H85.1961C85.7942 11.1739 86.3885 11.2698 86.9561 11.458C87.4961 11.642 87.9601 11.904 88.3511 12.245C88.7411 12.585 89.0451 12.999 89.2641 13.485C89.4821 13.972 89.5911 14.521 89.5911 15.133C89.5911 15.727 89.4811 16.263 89.2641 16.741C89.0521 17.2101 88.7406 17.6274 88.3511 17.964C87.9601 18.302 87.4951 18.562 86.9561 18.742C86.3879 18.9273 85.7939 19.0218 85.1961 19.022H83.0381ZM83.0381 17.327H85.1961C85.5521 17.327 85.8681 17.272 86.1491 17.165C86.4291 17.057 86.6671 16.907 86.8651 16.715C87.0646 16.5202 87.2195 16.2845 87.3191 16.024C87.4241 15.756 87.4771 15.465 87.4771 15.151C87.4771 14.818 87.4241 14.512 87.3191 14.233C87.2208 13.9629 87.066 13.7168 86.8651 13.511C86.6615 13.3073 86.4177 13.1482 86.1491 13.044C85.8445 12.9291 85.5217 12.8699 85.1961 12.869H83.0381V17.327ZM94.6091 19.02V23.653C94.6093 23.685 94.6031 23.7167 94.5909 23.7463C94.5788 23.7759 94.5609 23.8028 94.5383 23.8255C94.5157 23.8482 94.4889 23.8662 94.4594 23.8784C94.4298 23.8907 94.3981 23.897 94.3661 23.897H92.7561C92.7242 23.897 92.6925 23.8907 92.6629 23.8784C92.6334 23.8662 92.6065 23.8482 92.584 23.8255C92.5614 23.8028 92.5435 23.7759 92.5314 23.7463C92.5192 23.7167 92.513 23.685 92.5131 23.653V11.418C92.5131 11.283 92.6211 11.174 92.7551 11.174H96.7681C97.4031 11.18 97.9901 11.274 98.5281 11.458C99.0403 11.6263 99.5143 11.8938 99.9231 12.245C100.313 12.585 100.618 12.999 100.836 13.485C101.055 13.972 101.164 14.521 101.164 15.133C101.164 15.727 101.054 16.263 100.836 16.741C100.625 17.2104 100.313 17.6278 99.9231 17.964C99.5142 18.3126 99.0405 18.577 98.5291 18.742C97.9891 18.922 97.4031 19.016 96.7681 19.022H94.6091V19.02ZM94.6091 17.326H96.7681C97.1231 17.326 97.4411 17.271 97.7201 17.164C97.9873 17.0645 98.2313 16.9114 98.4371 16.714C98.6341 16.521 98.7871 16.291 98.8911 16.023C98.9971 15.755 99.0491 15.464 99.0491 15.15C99.0491 14.817 98.9971 14.511 98.8911 14.232C98.7926 13.9619 98.6379 13.7158 98.4371 13.51C98.2335 13.3058 97.9892 13.1467 97.7201 13.043C97.4159 12.9281 97.0934 12.8688 96.7681 12.868H94.6091V17.326Z" fill="white"/>
</g>
<defs>
<clipPath id="clip0_1_475">
<rect width="20" height="32" fill="white"/>
</clipPath>
<clipPath id="clip1_1_475">
<rect width="70" height="14" fill="white" transform="translate(32 11)"/>
</clipPath>
</defs>
</svg>
