<svg width="10" height="10" viewBox="0 0 10 10" fill="none" xmlns="http://www.w3.org/2000/svg">
<g clip-path="url(#clip0_1_547)">
<path d="M5.63739 7.66782L9.74504 3.56017C9.90557 3.39964 10 3.18245 10 2.94638C10 2.71031 9.90557 2.49312 9.74504 2.33259C9.58451 2.17207 9.36733 2.07764 9.13126 2.07764C8.89518 2.07764 8.678 2.17207 8.51747 2.33259L5.00472 5.84534L1.49197 2.33259C1.33144 2.17207 1.11426 2.07764 0.878187 2.07764C0.642115 2.07764 0.424929 2.17207 0.264401 2.32315C0.0849861 2.49312 0 2.71975 0 2.94638C0 3.16357 0.0849857 3.38075 0.245514 3.56017C1.322 4.6461 4.11709 7.45063 4.30595 7.64893L4.32483 7.66782C4.66478 8.00776 5.29745 8.00776 5.63739 7.66782Z" fill="white"/>
</g>
<defs>
<clipPath id="clip0_1_547">
<rect width="10" height="10" fill="white"/>
</clipPath>
</defs>
</svg>
